<?xml version="1.0" encoding="UTF-8"?>
<svg width="29px" height="29px" viewBox="0 0 29 29" version="1.1" xmlns="http://www.w3.org/2000/svg" xmlns:xlink="http://www.w3.org/1999/xlink">
    <!-- Generator: Sketch 52.5 (67469) - http://www.bohemiancoding.com/sketch -->
    <title>标签</title>
    <desc>Created with Sketch.</desc>
    <g id="mainPage" stroke="none" stroke-width="1" fill="none" fill-rule="evenodd">
        <g id="001-首页-左侧缩进" transform="translate(-1373.000000, -114.000000)">
            <rect fill="#FFFFFF" x="0" y="0" width="1580" height="1020"></rect>
            <g id="Group">
                <g id="editbar" transform="translate(1223.000000, 112.000000)">
                    <g id="Group" transform="translate(0.015625, 2.000000)">
                        <path d="M5.14551455,12.5313733 L17.5185479,3.87934102" id="Line-4" stroke="#13ABC4" stroke-linecap="square" transform="translate(11.332031, 8.205357) rotate(4.000000) translate(-11.332031, -8.205357) "></path>
                        <path d="M4.57005529,12.6238046 L20.1654358,20.3583382" id="Line-4" stroke="#13ABC4" stroke-linecap="square" transform="translate(12.367746, 16.491071) rotate(4.000000) translate(-12.367746, -16.491071) "></path>
                        <circle id="Oval" fill="#13ABC4" cx="4.85881696" cy="12.0892857" r="4.66071429"></circle>
                        <circle id="Oval" fill="#13ABC4" cx="18.3231027" cy="4.83928571" r="3.625"></circle>
                        <circle id="Oval" fill="#13ABC4" cx="20.3945313" cy="21.4107143" r="3.625"></circle>
                    </g>
                    <g id="Group-11" transform="translate(258.000000, 0.000000)" stroke="#13ABC4">
                        <path d="M20.9585526,7 L6,24.3712224 L6,27.7037037 L23,27.7037037 L23,7 L20.9585526,7 Z" id="Path" stroke-width="2"></path>
                        <rect id="Rectangle" stroke-width="2" x="1" y="1" width="17.1631321" height="20.7037037"></rect>
                    </g>
                    <g id="标签" transform="translate(150.000000, 2.000000)" fill="#13ABC4">
                        <path d="M12.3418118,0.00811122734 L24.9081887,1.15017204 C25.9315938,1.24287178 26.8363433,2.13649728 26.930897,3.17473438 L28.0748118,15.7411113 L16.8062313,27.0078378 C15.3512902,28.4471973 13.0058076,28.4372448 11.5631339,26.9855899 L1.09733318,16.5197891 C-0.349252523,15.0749975 -0.359187275,12.7337076 1.07508525,11.2766917 L12.3418118,0.00811122734 Z M13.4356687,2.87067923 L2.85121228,13.4514277 C2.49895327,13.8036867 2.49895327,14.402527 2.86789824,14.771472 L13.329991,25.2354188 C13.5021995,25.4140282 13.7388195,25.5161509 13.9869109,25.5189384 C14.2350022,25.521726 14.4738571,25.4249457 14.6500353,25.2502507 L25.2307838,14.6695023 L24.2036706,3.89779236 L13.4319607,2.87067923 L13.4356687,2.87067923 Z M15.7809722,12.2982429 C15.0583717,11.5996643 14.7689299,10.5655489 15.023893,9.59335696 C15.2788561,8.62116497 16.0385464,7.86219074 17.0109783,7.60814446 C17.9834103,7.35409818 19.0172523,7.64451503 19.7151492,8.36777387 C20.7685651,9.45947153 20.7526803,11.1939951 19.6794471,12.2662168 C18.6062138,13.3384385 16.871676,13.3526878 15.7809722,12.2982429 Z" id="Shape" fill-rule="nonzero"></path>
                    </g>
                    <g id="更多" transform="translate(202.000000, 11.000000)" fill="#13ABC4">
                        <path d="M3.8116747,0.0242996509 C1.70935365,0.0242996509 0.00497548995,1.72793951 0.00497548995,3.83103096 C0.00497548995,5.93331992 1.70935365,7.63695978 3.8117068,7.63695978 C5.91405996,7.63695978 7.61840601,5.93331992 7.61840601,3.83099886 C7.61840601,1.72797161 5.91399576,0.024267551 3.8116747,0.024267551 L3.8116747,0.0242996509 Z M15.9528332,0.0242996509 C13.8505121,0.0242996509 12.1461019,1.72793951 12.1461019,3.83103096 C12.1461019,5.93331992 13.8505121,7.63695978 15.9528332,7.63695978 C18.0551542,7.63695978 19.7595645,5.93331992 19.7595645,3.83099886 C19.7595645,1.72797161 18.0551542,0.024267551 15.9528332,0.024267551 L15.9528332,0.0242996509 Z M28.8528662,0.0242996509 C26.7505452,0.0242996509 25.0461349,1.72793951 25.0461349,3.83103096 C25.0461349,5.93331992 26.7505452,7.63695978 28.8528662,7.63695978 C30.9551873,7.63695978 32.6595975,5.93331992 32.6595975,3.83099886 C32.6595333,1.72797161 30.9551873,0.024267551 28.8528662,0.024267551 L28.8528662,0.0242996509 Z" id="Shape" fill-rule="nonzero"></path>
                    </g>
                    <g id="搜索" transform="translate(99.000000, 2.000000)" fill="#13ABC4">
                        <path d="M27.6592814,24.669195 L22.1758708,19.2269053 C21.5403719,18.5963855 20.5881536,18.5277363 19.8461468,18.9556279 L16.9133454,16.0447462 C18.4592264,14.340992 19.4074957,12.0927084 19.4074957,9.61981969 C19.4074957,4.30632957 15.0673709,0 9.71410487,0 C4.36069576,0 0.0206854295,4.30635819 0.0206854295,9.61981969 C0.0206854295,14.9323655 4.36069576,19.2393246 9.71410487,19.2393246 C11.8757685,19.2393246 13.8654801,18.5283659 15.4776924,17.3411549 L18.475194,20.3161359 C18.0440974,21.0525627 18.1133476,21.9975698 18.7488466,22.6284616 L24.2322571,28.0704651 C24.9893158,28.8216003 26.2167605,28.8216003 26.9738479,28.0704651 L27.6592813,27.390211 C28.4166835,26.6386466 28.4166835,25.4200727 27.6592814,24.669195 Z M9.6938449,16.7946224 C5.67870936,16.7946224 2.42398063,13.5639881 2.42398063,9.57967177 C2.42398063,8.45481457 2.7057601,7.40427253 3.16758997,6.45565984 C3.70499407,6.9570653 4.52546536,7.73046366 4.52546536,7.77104081 C4.52546536,6.92893601 7.10423246,4.36977072 7.89165253,4.36977072 C7.85150461,4.36977072 7.08820765,3.59866163 6.58188025,3.08314858 C7.52883321,2.63528321 8.57516876,2.3646639 9.69384492,2.3646639 C13.709238,2.3646639 16.9637092,5.59464002 16.9637092,9.57967174 C16.9637378,13.5639881 13.709238,16.7946224 9.6938449,16.7946224 Z" id="Shape" fill-rule="nonzero"></path>
                    </g>
                    <g id="飞机" transform="translate(47.767578, 2.000000)" fill="#13ABC4">
                        <polygon id="Path" points="0.0180322285 16.7830721 28.4584261 0.0293538271 24.6340687 22.288828 13.507167 19.7832145 21.9306437 7.78264493 10.4575717 19.1238426"></polygon>
                        <polygon id="Path" points="13.1609967 21.4975816 13.67201 27.4890308 16.7875425 22.288828"></polygon>
                    </g>
                    <g id="Group-13" transform="translate(305.000000, 2.000000)">
                        <circle id="Oval" stroke="#13ABC4" stroke-width="2" cx="13" cy="13" r="13"></circle>
                        <path d="M13,12.5 L13,20.7037037" id="Line-9" stroke="#13ABC4" stroke-width="2" stroke-linecap="square"></path>
                        <circle id="Oval" fill="#13ABC4" cx="12.5" cy="6.5" r="2.5"></circle>
                    </g>
                </g>
                <g id="editbar" transform="translate(1223.000000, 112.000000)" fill="#13ABC4" fill-rule="nonzero">
                    <g id="标签" transform="translate(150.000000, 2.000000)">
                        <path d="M12.3418118,0.00811122734 L24.9081887,1.15017204 C25.9315938,1.24287178 26.8363433,2.13649728 26.930897,3.17473438 L28.0748118,15.7411113 L16.8062313,27.0078378 C15.3512902,28.4471973 13.0058076,28.4372448 11.5631339,26.9855899 L1.09733318,16.5197891 C-0.349252523,15.0749975 -0.359187275,12.7337076 1.07508525,11.2766917 L12.3418118,0.00811122734 Z M13.4356687,2.87067923 L2.85121228,13.4514277 C2.49895327,13.8036867 2.49895327,14.402527 2.86789824,14.771472 L13.329991,25.2354188 C13.5021995,25.4140282 13.7388195,25.5161509 13.9869109,25.5189384 C14.2350022,25.521726 14.4738571,25.4249457 14.6500353,25.2502507 L25.2307838,14.6695023 L24.2036706,3.89779236 L13.4319607,2.87067923 L13.4356687,2.87067923 Z M15.7809722,12.2982429 C15.0583717,11.5996643 14.7689299,10.5655489 15.023893,9.59335696 C15.2788561,8.62116497 16.0385464,7.86219074 17.0109783,7.60814446 C17.9834103,7.35409818 19.0172523,7.64451503 19.7151492,8.36777387 C20.7685651,9.45947153 20.7526803,11.1939951 19.6794471,12.2662168 C18.6062138,13.3384385 16.871676,13.3526878 15.7809722,12.2982429 Z" id="Shape"></path>
                    </g>
                </g>
            </g>
        </g>
    </g>
</svg>